<svg width="91" height="90" viewBox="0 0 91 90" fill="none" xmlns="http://www.w3.org/2000/svg">
<path d="M60.3983 19.4313C60.6902 19.6804 60.9809 19.9308 61.27 20.1831C61.3967 20.2887 61.5235 20.3943 61.654 20.5032C65.9211 24.1025 68.6249 29.7828 69.2572 35.2854C69.7554 41.7308 68.3618 48.206 64.1487 53.2684C63.6342 53.8577 63.0986 54.4247 62.5508 54.9829C62.3444 55.194 62.1423 55.4092 61.9408 55.6249C60.9252 56.6923 59.7727 57.7689 58.35 58.2194C57.6391 58.1784 57.1799 58.0195 56.5631 57.6637C56.031 57.0629 55.98 56.5278 55.9707 55.757C56.1543 54.8067 56.7899 54.2922 57.5219 53.7195C58.1761 53.2114 58.1761 53.2114 58.7803 52.6477C59.0037 52.4339 59.0037 52.4339 59.3524 52.4339C59.3951 52.3347 59.4378 52.2357 59.4818 52.1335C59.739 51.6677 60.0501 51.3453 60.4201 50.9629C63.7657 47.2956 65.2536 42.1581 65.1052 37.2673C64.7732 32.8367 63.2359 28.8408 60.3983 25.4129C60.277 25.263 60.1556 25.1132 60.0306 24.9587C57.0093 21.4026 52.273 19.1169 47.6723 18.6141C41.5712 18.2926 36.4238 19.7742 31.8085 23.844C31.6298 23.9977 31.6298 23.9977 31.4476 24.1545C27.8487 27.4766 25.9369 32.667 25.6573 37.4586C25.5446 42.3513 27.1504 46.9161 30.2395 50.6906C30.353 50.8329 30.4665 50.9751 30.5834 51.1216C31.3996 52.0888 32.3203 52.8732 33.3012 53.665C35.3293 55.3038 37.0878 57.0351 37.387 59.7556C37.3952 60.239 37.3984 60.7201 37.3945 61.2034C37.394 61.3326 37.3934 61.4618 37.3928 61.5949C37.3914 61.9116 37.3893 62.2283 37.387 62.5449C37.4823 62.5443 37.5775 62.5436 37.6756 62.543C40.0011 62.5275 42.3266 62.516 44.6521 62.5088C45.7766 62.5052 46.9012 62.5002 48.0259 62.4923C49.1121 62.4847 50.1983 62.4806 51.2846 62.4788C51.698 62.4774 52.1115 62.475 52.525 62.4712C53.1062 62.4661 53.6872 62.4655 54.2684 62.4658C54.4376 62.4632 54.6068 62.4607 54.7811 62.4582C56.4351 62.468 58.0068 62.9098 59.2141 64.0873C60.3559 65.4579 60.7887 66.8973 60.6735 68.6621C60.4425 70.2239 59.7238 71.4509 58.4835 72.4238C57.1894 73.2789 55.9082 73.379 54.3999 73.3808C54.236 73.3816 54.0721 73.3825 53.9032 73.3834C53.548 73.3853 53.1928 73.3869 52.8377 73.388C52.2757 73.3901 51.7138 73.3935 51.1518 73.3973C49.5544 73.408 47.9571 73.4174 46.3597 73.4232C45.382 73.4269 44.4044 73.433 43.4269 73.4409C43.0542 73.4433 42.6816 73.4448 42.309 73.4454C41.7886 73.4462 41.2683 73.4502 40.7478 73.455C40.5936 73.4545 40.4394 73.4539 40.2804 73.4534C39.6595 73.4619 39.2407 73.4698 38.6846 73.761C38.3833 74.0534 38.3833 74.0535 38.3676 74.5736C38.3972 75.1271 38.3972 75.1271 38.7816 75.6195C39.4007 75.8256 39.8989 75.8196 40.5525 75.8241C40.679 75.8256 40.8055 75.8263 40.9359 75.8278C41.2106 75.83 41.4855 75.8323 41.7602 75.8337C42.1965 75.8367 42.6327 75.8412 43.0689 75.8449C44.3094 75.8575 45.5497 75.868 46.7902 75.8769C47.5493 75.8828 48.3084 75.8895 49.0674 75.8977C49.3554 75.9007 49.6435 75.9029 49.9316 75.9044C54.5027 75.9289 54.5027 75.9289 56.2165 77.5125C57.3705 78.7613 57.853 80.1039 57.8331 81.802C57.6788 83.1743 57.0717 84.6433 55.9999 85.5292C54.7368 86.4619 53.6711 86.8182 52.087 86.8271C51.9593 86.8286 51.8316 86.8294 51.7 86.8308C51.2816 86.8338 50.8631 86.8346 50.4446 86.8353C50.1518 86.8361 49.859 86.8375 49.5662 86.839C48.9541 86.8405 48.3421 86.8413 47.7301 86.8413C46.9471 86.8413 46.1642 86.8457 45.3813 86.8517C44.7772 86.8561 44.1732 86.8561 43.5691 86.8561C43.2805 86.8569 42.9918 86.8584 42.7032 86.8606C42.2993 86.8643 41.8957 86.8636 41.4919 86.8613C41.2625 86.8621 41.0331 86.8621 40.7968 86.8628C40.0716 86.7617 39.6962 86.5356 39.1303 86.0796C38.7257 85.4459 38.7371 84.8717 38.8477 84.1502C39.0245 83.5998 39.3919 83.3008 39.8276 82.9415C39.8851 82.8835 39.9427 82.8262 40.0019 82.7667C40.3885 82.7474 40.7757 82.7399 41.1628 82.737C41.2842 82.7355 41.4055 82.7347 41.5305 82.7332C41.7948 82.731 42.0592 82.7288 42.3235 82.7273C42.7419 82.7243 43.1602 82.7199 43.5786 82.7154C44.7683 82.7035 45.9581 82.6931 47.1479 82.6842C47.8749 82.6782 48.6019 82.6715 49.3289 82.6626C49.6061 82.6603 49.8834 82.6581 50.1607 82.6566C50.5488 82.6544 50.9369 82.6499 51.325 82.6455C51.5458 82.644 51.7667 82.6418 51.9943 82.6403C52.5205 82.5956 52.8188 82.5384 53.2508 82.2438C53.4974 81.7507 53.4808 81.3944 53.4252 80.8492C53.0015 80.3873 52.7343 80.327 52.1064 80.2549C51.8538 80.2497 51.6009 80.2467 51.3481 80.246C51.1405 80.2422 51.1405 80.2422 50.9287 80.2393C50.6284 80.2341 50.3281 80.2303 50.0278 80.2281C49.5512 80.2237 49.0748 80.2162 48.5982 80.2073C47.4139 80.1865 46.2295 80.1708 45.0451 80.1567C44.0453 80.1448 43.0455 80.1299 42.0458 80.1113C41.5786 80.1039 41.1115 80.1002 40.6443 80.0965C38.7054 80.0689 37.0465 79.918 35.562 78.5315C34.3967 77.2351 33.9778 75.8583 34.0094 74.1296C34.1631 72.7139 34.7451 71.4252 35.8139 70.4707C37.3397 69.3662 38.7626 69.1435 40.5999 69.1447C40.8433 69.1438 40.8433 69.1438 41.0916 69.1429C41.4426 69.1415 41.7936 69.1406 42.1446 69.14C42.6999 69.1388 43.2553 69.136 43.8106 69.1328C45.3891 69.1237 46.9676 69.1153 48.5462 69.1126C49.5126 69.1108 50.4791 69.1058 51.4456 69.0984C51.8139 69.0962 52.1822 69.0953 52.5503 69.0958C53.0645 69.0962 53.5785 69.0923 54.0926 69.0875C54.245 69.0886 54.3973 69.0898 54.5543 69.091C55.4048 69.0794 55.4048 69.0794 56.1353 68.6685C56.451 68.2068 56.4873 67.9747 56.3888 67.4261C56.0613 66.9895 55.8726 66.9054 55.3428 66.7288C55.0805 66.7127 54.8175 66.7063 54.5547 66.7059C54.3932 66.7052 54.2316 66.7045 54.0652 66.7038C53.8884 66.7039 53.7115 66.7039 53.5293 66.7041C53.3427 66.7035 53.1561 66.7028 52.9639 66.7022C52.5581 66.701 52.1523 66.7 51.7465 66.6994C51.1039 66.6981 50.4612 66.6954 49.8186 66.6922C47.9911 66.683 46.1637 66.6747 44.3362 66.672C43.2188 66.6702 42.1015 66.6651 40.9841 66.6578C40.5586 66.6557 40.133 66.6548 39.7075 66.6552C39.1111 66.6556 38.515 66.6517 37.9187 66.6469C37.7436 66.648 37.5685 66.6492 37.3881 66.6504C36.1398 66.6338 35.1465 66.3997 34.2388 65.5024C34.1595 65.3858 34.0802 65.2691 33.9985 65.149C33.916 65.0319 33.8335 64.9148 33.7486 64.7942C33.242 63.9406 33.3199 62.9763 33.2872 62.0141C33.2212 60.5219 33.0064 59.0055 31.8787 57.9183C31.5498 57.6453 31.2131 57.3866 30.8714 57.1298C25.6896 53.0624 22.8166 47.8512 21.5891 41.4055C20.9378 34.9791 22.396 28.4154 26.5133 23.3319C26.7659 23.0363 27.02 22.7421 27.276 22.4494C27.3818 22.3224 27.4876 22.1955 27.5967 22.0646C35.6362 12.5302 50.9184 11.7558 60.3983 19.4313Z" fill="url(#paint0_linear_2_508)"/>
<path d="M69.9864 12.8618C70.5453 13.3301 70.8294 13.6558 70.9125 14.3871C70.7782 15.7839 69.4522 16.7427 68.5046 17.6667C68.2082 17.9571 67.9122 18.2479 67.6166 18.539C67.4859 18.6666 67.3552 18.7942 67.2206 18.9255C66.8355 19.3119 66.8355 19.3119 66.4879 19.7749C66.0261 20.3353 65.6249 20.5066 64.9309 20.7066C64.3243 20.6055 63.8949 20.4808 63.3837 20.14C63.0866 19.6777 63.0344 19.3387 63.0133 18.789C63.3499 17.8028 63.8101 17.193 64.5481 16.4702C64.6459 16.3722 64.7438 16.2742 64.8445 16.1732C65.0503 15.9677 65.2569 15.763 65.4644 15.5592C65.7808 15.2479 66.0938 14.9334 66.4065 14.6184C66.6077 14.4183 66.809 14.2185 67.0106 14.0187C67.1035 13.9252 67.1966 13.8318 67.2924 13.7354C68.1487 12.9003 68.8011 12.5088 69.9864 12.8618Z" fill="url(#paint1_linear_2_508)"/>
<path d="M22.1935 12.5397C22.6223 12.8248 22.9668 13.1742 23.3239 13.5434C23.4254 13.6447 23.527 13.7461 23.6315 13.8505C23.8449 14.0647 24.057 14.2802 24.2679 14.4968C24.589 14.8261 24.9144 15.1506 25.2409 15.4746C25.4484 15.6842 25.6556 15.8938 25.8626 16.1039C25.959 16.2 26.0554 16.2961 26.1548 16.3952C26.7776 17.0409 27.1419 17.6104 27.4234 18.4669C27.3237 19.1315 27.2287 19.5278 26.7588 20.014C26.0766 20.3648 25.6951 20.4318 24.9392 20.2428C24.1932 19.8834 23.7363 19.2926 23.2068 18.6711C22.4769 17.8276 21.6654 17.0596 20.8701 16.2784C20.7533 16.1631 20.6366 16.0477 20.5163 15.9289C20.3587 15.7743 20.3587 15.7743 20.198 15.6167C19.7548 15.1456 19.5844 14.8686 19.5241 14.2176C19.5824 13.5416 19.6715 13.233 20.1016 12.714C20.8263 12.2712 21.3846 12.3449 22.1935 12.5397Z" fill="url(#paint2_linear_2_508)"/>
<path d="M73.7897 36.4675C73.9525 36.4675 74.1153 36.4675 74.2831 36.4675C74.6261 36.4684 74.9691 36.4715 75.3122 36.4765C75.8366 36.4838 76.3602 36.4837 76.8846 36.4825C77.2186 36.4843 77.5526 36.4866 77.8865 36.4893C78.0427 36.4893 78.1989 36.4893 78.3596 36.4894C79.1934 36.5052 79.7736 36.5455 80.4459 37.094C80.745 37.5967 80.7963 37.9037 80.7836 38.4886C80.5664 39.1855 80.3307 39.4378 79.749 39.8832C79.1584 40.0118 78.5805 40.0055 77.978 39.999C77.7221 40.0002 77.7221 40.0002 77.4603 40.0016C77.1003 40.0022 76.7396 40.0005 76.3796 39.9969C75.8284 39.9922 75.2777 39.9968 74.7266 40.0024C74.3759 40.0019 74.0252 40.0007 73.6745 39.999C73.5102 40.0007 73.3458 40.0025 73.1765 40.0044C72.3732 39.99 72.0173 39.9711 71.3652 39.4651C71.025 39.0015 70.9095 38.7936 70.9126 38.2271C70.9083 38.0995 70.904 37.9719 70.8996 37.8403C71.3523 36.4846 72.5754 36.4452 73.7897 36.4675Z" fill="url(#paint3_linear_2_508)"/>
<path d="M11.9751 36.5247C12.1908 36.5222 12.1908 36.5222 12.4107 36.5196C12.5645 36.5198 12.7183 36.52 12.8768 36.5202C13.0362 36.5194 13.1957 36.5187 13.36 36.5179C13.6969 36.5169 14.0338 36.5168 14.3706 36.5176C14.8853 36.5181 15.3997 36.514 15.9143 36.5096C16.242 36.5092 16.5696 36.5091 16.8972 36.5092C17.0508 36.5077 17.2042 36.506 17.3623 36.5044C18.1933 36.5106 18.7601 36.5487 19.4312 37.0956C19.7301 37.5982 19.7811 37.9053 19.7689 38.4902C19.5516 39.1857 19.3136 39.4392 18.7338 39.8848C18.1562 40.0129 17.5913 40.007 17.0015 40.0006C16.8345 40.0015 16.6676 40.0023 16.4955 40.0031C16.1433 40.0037 15.791 40.0021 15.4388 39.9985C14.9004 39.9938 14.3625 39.9984 13.824 40.004C13.4813 40.0034 13.1385 40.0023 12.7958 40.0006C12.6353 40.0023 12.4747 40.0041 12.3093 40.0059C11.5207 39.9916 11.1719 39.9685 10.5302 39.4738C10.1335 38.9339 10.0175 38.6369 10.0175 37.9672C10.358 37.0352 10.358 37.0352 10.8627 36.7199C11.2624 36.5629 11.5475 36.5275 11.9751 36.5247Z" fill="url(#paint4_linear_2_508)"/>
<path d="M46.1034 3.09906C46.5891 3.45465 46.9229 3.7354 47.0569 4.33975C47.0905 4.79636 47.0959 5.24527 47.0908 5.7031C47.0917 5.87005 47.0925 6.037 47.0934 6.20902C47.094 6.56126 47.0923 6.91352 47.0887 7.26576C47.0841 7.80422 47.0887 8.34203 47.0943 8.88054C47.0937 9.22329 47.0925 9.56603 47.0908 9.90877C47.0926 10.0693 47.0943 10.2299 47.0962 10.3953C47.0818 11.1839 47.0587 11.5326 46.564 12.1744C46.0241 12.5711 45.7272 12.6871 45.0574 12.6871C44.1254 12.3466 44.1254 12.3466 43.8102 11.8418C43.6531 11.4422 43.6177 11.157 43.615 10.7294C43.6124 10.5138 43.6124 10.5138 43.6099 10.2938C43.6101 10.14 43.6102 9.9862 43.6104 9.8277C43.6096 9.6683 43.6089 9.50883 43.6081 9.34453C43.6072 9.00766 43.607 8.67079 43.6078 8.33392C43.6084 7.81929 43.6043 7.30485 43.5998 6.79027C43.5994 6.46261 43.5994 6.13495 43.5995 5.80728C43.5979 5.65381 43.5963 5.50034 43.5947 5.34223C43.6009 4.51124 43.6388 3.94449 44.1858 3.27339C44.8617 2.87147 45.3582 2.86619 46.1034 3.09906Z" fill="url(#paint5_linear_2_508)"/>
<defs>
<linearGradient id="paint0_linear_2_508" x1="45.5572" y1="-53.8135" x2="45.5572" y2="262.303" gradientUnits="userSpaceOnUse">
<stop stop-color="#302CFF" stop-opacity="0"/>
<stop offset="1"/>
</linearGradient>
<linearGradient id="paint1_linear_2_508" x1="67.1311" y1="6.24562" x2="67.1311" y2="31.3761" gradientUnits="userSpaceOnUse">
<stop stop-color="#302CFF" stop-opacity="0"/>
<stop offset="1"/>
</linearGradient>
<linearGradient id="paint2_linear_2_508" x1="23.6419" y1="5.91193" x2="23.6419" y2="30.9958" gradientUnits="userSpaceOnUse">
<stop stop-color="#302CFF" stop-opacity="0"/>
<stop offset="1"/>
</linearGradient>
<linearGradient id="paint3_linear_2_508" x1="76.0531" y1="33.5842" x2="76.0531" y2="44.7412" gradientUnits="userSpaceOnUse">
<stop stop-color="#302CFF" stop-opacity="0"/>
<stop offset="1"/>
</linearGradient>
<linearGradient id="paint4_linear_2_508" x1="15.1016" y1="33.6564" x2="15.1016" y2="44.6907" gradientUnits="userSpaceOnUse">
<stop stop-color="#302CFF" stop-opacity="0"/>
<stop offset="1"/>
</linearGradient>
<linearGradient id="paint5_linear_2_508" x1="45.42" y1="-4.98187" x2="45.42" y2="25.7236" gradientUnits="userSpaceOnUse">
<stop stop-color="#302CFF" stop-opacity="0"/>
<stop offset="1"/>
</linearGradient>
</defs>
</svg>
